<svg width="33" height="33" viewBox="0 0 33 33" fill="none" xmlns="http://www.w3.org/2000/svg">
<path d="M33 16.5C33 16.5 26.8125 5.15625 16.5 5.15625C6.1875 5.15625 0 16.5 0 16.5C0 16.5 6.1875 27.8438 16.5 27.8438C26.8125 27.8438 33 16.5 33 16.5ZM2.41869 16.5C2.5361 16.321 2.66999 16.1221 2.82 15.9069C3.5107 14.9159 4.52989 13.5979 5.84122 12.2865C8.49963 9.62813 12.1288 7.21875 16.5 7.21875C20.8712 7.21875 24.5004 9.62813 27.1588 12.2865C28.4701 13.5979 29.4893 14.9159 30.18 15.9069C30.33 16.1221 30.4639 16.321 30.5813 16.5C30.4639 16.679 30.33 16.8779 30.18 17.0931C29.4893 18.0841 28.4701 19.4021 27.1588 20.7135C24.5004 23.3719 20.8712 25.7812 16.5 25.7812C12.1288 25.7812 8.49963 23.3719 5.84122 20.7135C4.52989 19.4021 3.5107 18.0841 2.82 17.0931C2.66999 16.8779 2.5361 16.679 2.41869 16.5Z" fill="black"/>
<path d="M16.5 11.3438C13.6523 11.3438 11.3438 13.6523 11.3438 16.5C11.3438 19.3477 13.6523 21.6562 16.5 21.6562C19.3477 21.6562 21.6562 19.3477 21.6562 16.5C21.6562 13.6523 19.3477 11.3438 16.5 11.3438ZM9.28125 16.5C9.28125 12.5132 12.5132 9.28125 16.5 9.28125C20.4868 9.28125 23.7188 12.5132 23.7188 16.5C23.7188 20.4868 20.4868 23.7188 16.5 23.7188C12.5132 23.7188 9.28125 20.4868 9.28125 16.5Z" fill="black"/>
</svg>
